<svg xmlns="http://www.w3.org/2000/svg" viewBox="0 0 64 64">
  <defs>
    <linearGradient id="g" x1="0" y1="0" x2="1" y2="1">
      <stop offset="0" stop-color="#2563eb"/>
      <stop offset="1" stop-color="#60a5fa"/>
    </linearGradient>
  </defs>
  <rect width="64" height="64" rx="16" fill="url(#g)"/>
  <path d="M18 40V24h11.5c4.5 0 7.3 2.4 7.3 6.2 0 2.6-1.4 4.4-3.6 5.2 2.7.7 4.4 2.7 4.4 5.6 0 4.1-3.1 6.6-7.9 6.6H18v-7.6zm7.4-9.4h3.3c1.7 0 2.7-.8 2.7-2.2 0-1.4-1-2.1-2.7-2.1h-3.3v4.3zm0 10.6h3.7c1.9 0 3-.9 3-2.4 0-1.5-1.1-2.3-3-2.3h-3.7v4.7z" fill="#fff"/>
</svg>
